<svg xmlns="http://www.w3.org/2000/svg" viewBox="0 0 100 100" preserveAspectRatio="xMidYMid" width="157" height="157" style="shape-rendering: auto; display: block; background: transparent;" xmlns:xlink="http://www.w3.org/1999/xlink"><g><g transform="rotate(0 50 50)">
  <rect fill="#d2ab1d" height="17" width="4" ry="8.5" rx="2" y="21.5" x="48">
    <animate repeatCount="indefinite" begin="-0.75s" dur="0.8s" keyTimes="0;1" values="1;0" attributeName="opacity"></animate>
  </rect>
</g><g transform="rotate(22.5 50 50)">
  <rect fill="#d2ab1d" height="17" width="4" ry="8.5" rx="2" y="21.5" x="48">
    <animate repeatCount="indefinite" begin="-0.7s" dur="0.8s" keyTimes="0;1" values="1;0" attributeName="opacity"></animate>
  </rect>
</g><g transform="rotate(45 50 50)">
  <rect fill="#d2ab1d" height="17" width="4" ry="8.5" rx="2" y="21.5" x="48">
    <animate repeatCount="indefinite" begin="-0.65s" dur="0.8s" keyTimes="0;1" values="1;0" attributeName="opacity"></animate>
  </rect>
</g><g transform="rotate(67.5 50 50)">
  <rect fill="#d2ab1d" height="17" width="4" ry="8.5" rx="2" y="21.5" x="48">
    <animate repeatCount="indefinite" begin="-0.6s" dur="0.8s" keyTimes="0;1" values="1;0" attributeName="opacity"></animate>
  </rect>
</g><g transform="rotate(90 50 50)">
  <rect fill="#d2ab1d" height="17" width="4" ry="8.5" rx="2" y="21.5" x="48">
    <animate repeatCount="indefinite" begin="-0.55s" dur="0.8s" keyTimes="0;1" values="1;0" attributeName="opacity"></animate>
  </rect>
</g><g transform="rotate(112.5 50 50)">
  <rect fill="#d2ab1d" height="17" width="4" ry="8.5" rx="2" y="21.5" x="48">
    <animate repeatCount="indefinite" begin="-0.5s" dur="0.8s" keyTimes="0;1" values="1;0" attributeName="opacity"></animate>
  </rect>
</g><g transform="rotate(135 50 50)">
  <rect fill="#d2ab1d" height="17" width="4" ry="8.5" rx="2" y="21.5" x="48">
    <animate repeatCount="indefinite" begin="-0.45s" dur="0.8s" keyTimes="0;1" values="1;0" attributeName="opacity"></animate>
  </rect>
</g><g transform="rotate(157.5 50 50)">
  <rect fill="#d2ab1d" height="17" width="4" ry="8.5" rx="2" y="21.5" x="48">
    <animate repeatCount="indefinite" begin="-0.4s" dur="0.8s" keyTimes="0;1" values="1;0" attributeName="opacity"></animate>
  </rect>
</g><g transform="rotate(180 50 50)">
  <rect fill="#d2ab1d" height="17" width="4" ry="8.5" rx="2" y="21.5" x="48">
    <animate repeatCount="indefinite" begin="-0.35s" dur="0.8s" keyTimes="0;1" values="1;0" attributeName="opacity"></animate>
  </rect>
</g><g transform="rotate(202.5 50 50)">
  <rect fill="#d2ab1d" height="17" width="4" ry="8.5" rx="2" y="21.5" x="48">
    <animate repeatCount="indefinite" begin="-0.3s" dur="0.8s" keyTimes="0;1" values="1;0" attributeName="opacity"></animate>
  </rect>
</g><g transform="rotate(225 50 50)">
  <rect fill="#d2ab1d" height="17" width="4" ry="8.5" rx="2" y="21.5" x="48">
    <animate repeatCount="indefinite" begin="-0.25s" dur="0.8s" keyTimes="0;1" values="1;0" attributeName="opacity"></animate>
  </rect>
</g><g transform="rotate(247.5 50 50)">
  <rect fill="#d2ab1d" height="17" width="4" ry="8.5" rx="2" y="21.5" x="48">
    <animate repeatCount="indefinite" begin="-0.2s" dur="0.8s" keyTimes="0;1" values="1;0" attributeName="opacity"></animate>
  </rect>
</g><g transform="rotate(270 50 50)">
  <rect fill="#d2ab1d" height="17" width="4" ry="8.5" rx="2" y="21.5" x="48">
    <animate repeatCount="indefinite" begin="-0.15s" dur="0.8s" keyTimes="0;1" values="1;0" attributeName="opacity"></animate>
  </rect>
</g><g transform="rotate(292.5 50 50)">
  <rect fill="#d2ab1d" height="17" width="4" ry="8.5" rx="2" y="21.5" x="48">
    <animate repeatCount="indefinite" begin="-0.1s" dur="0.8s" keyTimes="0;1" values="1;0" attributeName="opacity"></animate>
  </rect>
</g><g transform="rotate(315 50 50)">
  <rect fill="#d2ab1d" height="17" width="4" ry="8.5" rx="2" y="21.5" x="48">
    <animate repeatCount="indefinite" begin="-0.05s" dur="0.8s" keyTimes="0;1" values="1;0" attributeName="opacity"></animate>
  </rect>
</g><g transform="rotate(337.5 50 50)">
  <rect fill="#d2ab1d" height="17" width="4" ry="8.5" rx="2" y="21.5" x="48">
    <animate repeatCount="indefinite" begin="0s" dur="0.8s" keyTimes="0;1" values="1;0" attributeName="opacity"></animate>
  </rect>
</g><g></g></g><!-- [ldio] generated by https://loading.io --></svg>